<svg width="154" height="119" viewBox="0 0 154 119" fill="none" xmlns="http://www.w3.org/2000/svg">
<path d="M37.0833 2.04781C26.1597 28.6804 14.9224 55.2235 4.42856 82.0319C1.19872 90.283 3.51394 87.578 9.13165 84.3633C20.0345 78.124 30.8537 71.7359 41.636 65.291C56.4608 56.4298 50.236 60.0708 63.5854 52.0445C67.3389 49.7877 70.8377 46.9873 74.9178 45.3955C78.2466 44.0968 76.3291 52.6297 75.4786 56.1C72.4569 68.4303 68.0214 80.2708 64.1965 92.3524C61.8786 99.6737 59.5392 107.443 59.1835 115.184C59.0488 118.115 63.9365 111.727 66.1393 109.789C84.7576 93.4061 103.987 77.8988 123.806 62.9893C133.218 55.9087 142.694 48.8666 152.474 42.2979C155.003 40.5996 159.761 35.9288 160.897 38.7548C161.6 40.5015 160.953 42.5359 160.68 44.3986C160.095 48.3864 159.123 52.3076 158.33 56.2593C155.627 69.7322 152.756 83.1723 150.104 96.6552C149.295 100.771 148.743 103.726 148.143 107.679C148.038 108.374 147.245 110.076 147.879 109.772C149.717 108.89 151.055 107.206 152.743 106.063C157.546 102.811 162.073 100.076 167.123 97.1762C171.499 94.664 176.037 92.1964 180.402 89.71" stroke="#356AEB" stroke-width="5" stroke-linecap="round"/>
</svg>
